<?xml version="1.0" standalone="no"?>
<!DOCTYPE svg PUBLIC "-//W3C//DTD SVG 20010904//EN"
 "http://www.w3.org/TR/2001/REC-SVG-20010904/DTD/svg10.dtd">
<svg version="1.0" xmlns="http://www.w3.org/2000/svg"
 width="100.000000pt" height="100.000000pt" viewBox="0 0 100.000000 100.000000"
 preserveAspectRatio="xMidYMid meet">

<g transform="translate(0.000000,100.000000) scale(0.100000,-0.100000)"
fill="#000000" stroke="none">
<path d="M419 977 c-167 -47 -266 -240 -207 -402 23 -62 271 -455 288 -455 17
0 262 388 290 460 8 19 14 64 14 101 0 198 -196 349 -385 296z m206 -81 c59
-35 101 -93 116 -163 20 -88 1 -139 -126 -345 -60 -98 -112 -178 -115 -178
-15 0 -226 361 -239 408 -34 123 34 253 156 298 58 22 152 12 208 -20z"/>
<path d="M424 726 c-73 -73 -27 -186 76 -186 69 0 110 43 110 115 0 55 -53
105 -110 105 -34 0 -48 -6 -76 -34z m112 -41 c19 -19 23 -31 18 -48 -9 -33
-20 -40 -54 -40 -34 0 -45 7 -54 40 -5 17 -1 29 18 48 14 14 30 25 36 25 6 0
22 -11 36 -25z"/>
<path d="M102 278 c-45 -22 -92 -70 -92 -95 0 -30 35 -72 79 -97 180 -97 642
-97 822 0 44 25 79 67 79 97 0 42 -106 117 -165 117 -19 0 -25 -5 -25 -21 0
-15 14 -26 53 -43 29 -13 59 -32 67 -41 13 -15 11 -20 -13 -41 -128 -110 -686
-110 -814 0 -24 21 -26 26 -13 41 8 9 38 28 67 41 39 17 53 28 53 43 0 28 -40
27 -98 -1z"/>
</g>
</svg>
