<?xml version="1.0" standalone="no"?>
<!DOCTYPE svg PUBLIC "-//W3C//DTD SVG 20010904//EN"
 "http://www.w3.org/TR/2001/REC-SVG-20010904/DTD/svg10.dtd">
<svg version="1.0" xmlns="http://www.w3.org/2000/svg"
 width="100.000000pt" height="100.000000pt" viewBox="0 0 100.000000 100.000000"
 preserveAspectRatio="xMidYMid meet">

<g transform="translate(0.000000,100.000000) scale(0.100000,-0.100000)"
fill="#000000" stroke="none">
<path d="M393 975 c-188 -41 -341 -204 -373 -397 -45 -264 142 -519 410 -559
321 -49 605 239 550 559 -33 196 -186 357 -377 397 -82 18 -129 18 -210 0z
m288 -92 c81 -40 169 -130 207 -210 24 -53 27 -69 27 -173 0 -110 -2 -119 -32
-181 -40 -81 -130 -169 -210 -207 -53 -24 -69 -27 -173 -27 -104 0 -120 3
-173 27 -80 38 -170 126 -210 207 -30 62 -32 71 -32 181 0 104 3 120 27 173
31 66 114 158 176 194 72 43 119 53 228 50 90 -2 107 -6 165 -34z"/>
<path d="M475 768 c-3 -8 -4 -76 -3 -152 l3 -138 103 -60 c107 -61 135 -68
140 -31 3 17 -14 31 -92 77 l-95 56 -3 128 c-3 123 -4 127 -26 130 -12 2 -24
-3 -27 -10z"/>
</g>
</svg>
