<?xml version="1.0" standalone="no"?>
<!DOCTYPE svg PUBLIC "-//W3C//DTD SVG 20010904//EN"
 "http://www.w3.org/TR/2001/REC-SVG-20010904/DTD/svg10.dtd">
<svg version="1.0" xmlns="http://www.w3.org/2000/svg"
 width="100.000000pt" height="100.000000pt" viewBox="0 0 100.000000 100.000000"
 preserveAspectRatio="xMidYMid meet">

<g transform="translate(0.000000,100.000000) scale(0.100000,-0.100000)"
fill="#000000" stroke="none">
<path d="M178 970 c-54 -29 -107 -87 -137 -150 -34 -73 -35 -178 -2 -263 33
-85 110 -193 205 -290 232 -235 422 -305 592 -216 87 46 168 155 148 199 -11
24 -202 160 -225 160 -10 0 -39 -26 -65 -57 -27 -32 -51 -62 -56 -67 -11 -14
-112 57 -191 133 -69 66 -167 189 -167 209 0 6 23 27 50 47 50 37 80 70 80 90
0 11 -110 168 -142 203 -26 27 -42 27 -90 2z m111 -114 c34 -46 61 -88 61 -93
0 -5 -23 -26 -50 -47 -86 -66 -89 -86 -21 -182 81 -116 267 -283 334 -299 35
-9 57 5 106 69 l42 55 85 -61 c49 -35 84 -67 84 -77 0 -28 -64 -94 -121 -126
-108 -60 -237 -33 -384 78 -80 60 -231 217 -279 291 -102 155 -109 291 -19
395 29 34 86 81 100 81 1 0 29 -38 62 -84z"/>
</g>
</svg>
